<mxfile host="app.diagrams.net" agent="Mozilla/5.0 (Macintosh; Intel Mac OS X 10_15_7) AppleWebKit/537.36 (KHTML, like Gecko) Chrome/134.0.0.0 Safari/537.36" version="26.1.1">
  <diagram name="Page-1" id="UDMH-g8smObDi8ThDtx7">
    <mxGraphModel grid="1" page="1" gridSize="10" guides="1" tooltips="1" connect="1" arrows="1" fold="1" pageScale="1" pageWidth="1169" pageHeight="827" math="0" shadow="0">
      <root>
        <mxCell id="0" />
        <mxCell id="1" parent="0" />
        <mxCell id="0cjiIzsEqkZAGTMQnQsQ-1" value="Billing System" style="ellipse;aspect=fixed;strokeWidth=2;whiteSpace=wrap;fillColor=#dae8fc;strokeColor=#6c8ebf;" vertex="1" parent="1">
          <mxGeometry x="586.5" y="300" width="148" height="148" as="geometry" />
        </mxCell>
        <mxCell id="0cjiIzsEqkZAGTMQnQsQ-2" value="Provides Receipt" style="curved=1;startArrow=none;endArrow=block;exitX=0.388;exitY=0.05;rounded=0;exitDx=0;exitDy=0;exitPerimeter=0;" edge="1" parent="1">
          <mxGeometry x="-0.0595" y="23" relative="1" as="geometry">
            <Array as="points">
              <mxPoint x="878" y="360" />
            </Array>
            <mxPoint x="728" y="377" as="sourcePoint" />
            <mxPoint x="895.9200000000001" y="250" as="targetPoint" />
            <mxPoint as="offset" />
          </mxGeometry>
        </mxCell>
        <mxCell id="0cjiIzsEqkZAGTMQnQsQ-4" value="Generate Bill" style="curved=1;startArrow=none;endArrow=block;rounded=0;entryX=0.5;entryY=0;entryDx=0;entryDy=0;exitX=0.5;exitY=1;exitDx=0;exitDy=0;" edge="1" parent="1" target="0cjiIzsEqkZAGTMQnQsQ-1">
          <mxGeometry x="0.0097" relative="1" as="geometry">
            <Array as="points" />
            <mxPoint x="660.5" y="185" as="sourcePoint" />
            <mxPoint x="818" y="245" as="targetPoint" />
            <mxPoint as="offset" />
          </mxGeometry>
        </mxCell>
        <mxCell id="0cjiIzsEqkZAGTMQnQsQ-6" value="0.2.1" style="text;strokeColor=none;align=center;fillColor=none;html=1;verticalAlign=middle;whiteSpace=wrap;rounded=0;" vertex="1" parent="1">
          <mxGeometry x="630.5" y="384" width="60" height="30" as="geometry" />
        </mxCell>
      </root>
    </mxGraphModel>
  </diagram>
</mxfile>
